<svg xmlns="http://www.w3.org/2000/svg" xmlns:xlink="http://www.w3.org/1999/xlink" fill="none" version="1.1" width="32" height="32" viewBox="0 0 32 32"><g><path d="M16.000000746139527,29.333334746139528C8.636200146139526,29.333334746139528,2.6666667461395264,23.363733746139527,2.6666667461395264,16.000000746139527C2.6666667461395264,8.636200146139526,8.636200146139526,2.6666667461395264,16.000000746139527,2.6666667461395264C23.363733746139527,2.6666667461395264,29.333334746139528,8.636200146139526,29.333334746139528,16.000000746139527C29.333334746139528,23.363733746139527,23.363733746139527,29.333334746139528,16.000000746139527,29.333334746139528ZM16.000007746139527,27.733341746139526C22.480141746139527,27.733341746139526,27.733341746139526,22.480141746139527,27.733341746139526,16.000007746139527C27.733341746139526,9.519860046139527,22.480141746139527,4.266672846139526,16.000007746139527,4.266672846139526C9.519860046139527,4.266672846139526,4.266672846139526,9.519860046139527,4.266672846139526,16.000007746139527C4.266672846139526,22.480141746139527,9.519860046139527,27.733341746139526,16.000007746139527,27.733341746139526ZM15.199991746139526,9.333338546139526L16.799991746139526,9.333338546139526L16.799991746139526,15.199991746139526L22.666670746139527,15.199991746139526L22.666670746139527,16.799991746139526L16.799991746139526,16.799991746139526L16.799991746139526,22.666670746139527L15.199991746139526,22.666670746139527L15.199991746139526,16.799991746139526L9.333338546139526,16.799991746139526L9.333338546139526,15.199991746139526L15.199991746139526,15.199991746139526L15.199991746139526,9.333338546139526Z" fill-rule="evenodd" fill="#000000" fill-opacity="0.8999999761581421"/></g></svg>