<svg xmlns="http://www.w3.org/2000/svg" xmlns:xlink="http://www.w3.org/1999/xlink" fill="none" version="1.1" width="8" height="11.313705444335938" viewBox="0 0 8 11.313705444335938"><g><path d="M6.7999969,5.6568499C6.7999969,7.48594,6.0761266,9.1973801,4.8083267,10.4652L5.6568546,11.3137C7.1045666,9.8659897,7.9999967,7.8659902,7.9999967,5.6568499C7.9999967,3.4477201,7.1045666,1.4477201,5.6568546,0L4.8083267,0.84852803C6.0761266,2.1163199,6.7999969,3.82776,6.7999969,5.6568499ZM3.9999962,5.6568642C3.9999962,6.7332344,3.5745094,7.7392044,2.8284264,8.4852848L3.6769543,9.3338146C4.6179667,8.3928041,5.1999965,7.092804,5.1999965,5.6568642C5.1999965,4.2209139,4.6179667,2.9209192,3.6769543,1.9799042L2.8284264,2.8284321C3.5745094,3.5745142,3.9999962,4.5804844,3.9999962,5.6568642ZM2.4000001,5.6568685C2.4000001,6.3196087,2.1313701,6.9196081,1.69706,7.3539181L0,5.6568685L1.69706,3.9598083C2.1313701,4.3941236,2.4000001,4.9941182,2.4000001,5.6568685Z" fill-rule="evenodd" fill="#000000" fill-opacity="0.8999999761581421"/></g></svg>