<svg xmlns="http://www.w3.org/2000/svg" xmlns:xlink="http://www.w3.org/1999/xlink" fill="none" version="1.1" width="24" height="24" viewBox="0 0 24 24"><g><path d="M7,12C7,13.1043999,6.104399900000001,14,5,14C3.89560002,14,3,13.1043999,3,12C3,10.89520001,3.89560002,10,5,10C6.104399900000001,10,7,10.89520001,7,12C7,12,7,12,7,12ZM12,10C13.1044,10,14,10.89520001,14,12C14,13.1043999,13.1044,14,12,14C10.8955998,14,10,13.1043999,10,12C10,10.89520001,10.8955998,10,12,10C12,10,12,10,12,10ZM19,10C20.104401,10,21,10.89520001,21,12C21,13.1043999,20.104401,14,19,14C17.8956,14,17,13.1043999,17,12C17,10.89520001,17.8956,10,19,10C19,10,19,10,19,10Z" fill-rule="evenodd" fill="#000000" fill-opacity="0.8999999761581421"/></g></svg>