<svg xmlns="http://www.w3.org/2000/svg" xmlns:xlink="http://www.w3.org/1999/xlink" fill="none" version="1.1" width="32" height="32" viewBox="0 0 32 32"><g><path d="M16.000000746139527,29.333334746139528C8.636200146139526,29.333334746139528,2.6666667461395264,23.363733746139527,2.6666667461395264,16.000000746139527C2.6666667461395264,8.636200146139526,8.636200146139526,2.6666667461395264,16.000000746139527,2.6666667461395264C23.363733746139527,2.6666667461395264,29.333334746139528,8.636200146139526,29.333334746139528,16.000000746139527C29.333334746139528,23.363733746139527,23.363733746139527,29.333334746139528,16.000000746139527,29.333334746139528ZM16.000007746139527,27.733341746139526C22.480141746139527,27.733341746139526,27.733341746139526,22.480141746139527,27.733341746139526,16.000007746139527C27.733341746139526,9.519860046139527,22.480141746139527,4.266672846139526,16.000007746139527,4.266672846139526C9.519860046139527,4.266672846139526,4.266672846139526,9.519860046139527,4.266672846139526,16.000007746139527C4.266672846139526,22.480141746139527,9.519860046139527,27.733341746139526,16.000007746139527,27.733341746139526ZM13.333330746139527,11.999994946139527C13.333330746139527,13.104567746139526,12.437904146139527,13.999994746139526,11.333330846139527,13.999994746139526C10.228761446139526,13.999994746139526,9.333330846139527,13.104567746139526,9.333330846139527,11.999994946139527C9.333330846139527,10.895425546139526,10.228761446139526,9.999994946139527,11.333330846139527,9.999994946139527C12.437904146139527,9.999994946139527,13.333330746139527,10.895425546139526,13.333330746139527,11.999994946139527ZM22.666658746139525,11.999994946139527C22.666658746139525,13.104567746139526,21.771231746139527,13.999994746139526,20.666658746139525,13.999994746139526C19.562090746139525,13.999994746139526,18.666658746139525,13.104567746139526,18.666658746139525,11.999994946139527C18.666658746139525,10.895425546139526,19.562090746139525,9.999994946139527,20.666658746139525,9.999994946139527C21.771231746139527,9.999994946139527,22.666658746139525,10.895425546139526,22.666658746139525,11.999994946139527ZM16.000002746139526,24.666666746139526C20.418283746139526,24.666666746139526,24.000002746139526,21.084946746139526,24.000002746139526,16.666666746139526L8.000002646139526,16.666666746139526C8.000002646139526,21.084946746139526,11.581722946139527,24.666666746139526,16.000002746139526,24.666666746139526ZM16.000004746139524,23.066671746139527C18.982149746139527,23.066671746139527,21.487911746139527,21.027033746139526,22.198378746139525,18.266672746139527L9.801630746139526,18.266672746139527C10.512098546139526,21.027033746139526,13.017857746139526,23.066671746139527,16.000004746139524,23.066671746139527Z" fill-rule="evenodd" fill="#000000" fill-opacity="0.8999999761581421"/></g></svg>