<svg xmlns="http://www.w3.org/2000/svg" xmlns:xlink="http://www.w3.org/1999/xlink" fill="none" version="1.1" width="32" height="32" viewBox="0 0 32 32"><g><path d="M2.6666667461395264,16.000000746139527C2.6666667461395264,23.363733746139527,8.636200146139526,29.333334746139528,16.000000746139527,29.333334746139528C23.363733746139527,29.333334746139528,29.333334746139528,23.363733746139527,29.333334746139528,16.000000746139527C29.333334746139528,8.636200146139526,23.363733746139527,2.6666667461395264,16.000000746139527,2.6666667461395264C8.636200146139526,2.6666667461395264,2.6666667461395264,8.636200146139526,2.6666667461395264,16.000000746139527ZM27.733341746139526,16.000007746139527C27.733341746139526,22.480141746139527,22.480141746139527,27.733341746139526,16.000007746139527,27.733341746139526C9.519860046139527,27.733341746139526,4.266672846139526,22.480141746139527,4.266672846139526,16.000007746139527C4.266672846139526,9.519860046139527,9.519860046139527,4.266672846139526,16.000007746139527,4.266672846139526C22.480141746139527,4.266672846139526,27.733341746139526,9.519860046139527,27.733341746139526,16.000007746139527ZM16.411097746139525,22.411131746139528C18.101496746139524,20.720705746139526,19.066656746139525,18.438784746139525,19.066656746139525,15.999996746139526C19.066656746139525,13.561210746139526,18.101496746139524,11.279289946139526,16.411097746139525,9.588900346139527L17.542467746139526,8.457529746139526C19.472750746139525,10.387823346139527,20.666655746139526,13.054489746139526,20.666655746139526,15.999996746139526C20.666655746139526,18.945517746139526,19.472750746139525,21.612184746139526,17.542467746139526,23.542463746139525L16.411097746139525,22.411131746139528ZM15.333328746139527,16.00000574613953C15.333328746139527,17.435165746139525,14.766012746139527,18.776459746139526,13.771234746139527,19.771231746139527L14.902605746139526,20.902605746139525C16.157289746139526,19.647924746139527,16.933329746139528,17.91459174613953,16.933329746139528,16.00000574613953C16.933329746139528,14.085404746139526,16.157289746139526,12.352078246139527,14.902605746139526,11.097391846139526L13.771234746139527,12.228762346139526C14.766012746139527,13.223537746139526,15.333328746139527,14.564831746139527,15.333328746139527,16.00000574613953ZM13.199995746139527,15.999999746139526C13.199995746139527,16.883653746139526,12.841822746139526,17.683652746139526,12.262741846139527,18.262732746139527L9.999994946139527,15.999999746139526L12.262741846139527,13.737253746139526C12.841822746139526,14.316339746139526,13.199995746139527,15.116333746139526,13.199995746139527,15.999999746139526Z" fill-rule="evenodd" fill="#000000" fill-opacity="0.8999999761581421"/></g></svg>