<svg xmlns="http://www.w3.org/2000/svg" xmlns:xlink="http://www.w3.org/1999/xlink" fill="none" version="1.1" width="24.3280029296875" height="11.333328247070312" viewBox="0 0 24.3280029296875 11.333328247070312"><g style="opacity:0.3499999940395355;"><path d="M0,2.6666601C0,1.19391,1.19391,0,2.6666701,0L19.3333,0C20.806101,0,22,1.19391,22,2.6666701L22,8.6666698C22,10.1394,20.806101,11.3333,19.3333,11.3333L2.6666701,11.3333C1.19391,11.3333,0,10.1394,0,8.6666698L0,2.6666601ZM1,2.6666601L0.99999982,8.6666698Q0.99999982,9.3570013,1.4881521,9.8451471Q1.976311,10.3333,2.6666701,10.3333L19.333302,10.3333Q20.023687,10.3333,20.51185,9.8451452Q21,9.3570032,21,8.6666698L21,2.6666701Q21,1.9763118,20.511845,1.4881586Q20.023684,1,19.3333,1L2.6666698,1.0000004Q1.9763135,1.0000001,1.4881558,1.4881567Q1,1.9763111,1,2.6666601Z" fill-rule="evenodd" fill="#000000" fill-opacity="1"/></g><path d="M23,3.6666667461395264C23,3.6666667461395264,23,7.666666746139526,23,7.666666746139526C23.80473101,7.327886846139526,24.32804,6.539796846139526,24.32804,5.666666746139526C24.32804,4.793536746139527,23.80473101,4.005443756139527,23,3.6666667461395264Z" fill="#000000" fill-opacity="1" style="opacity:0.4000000059604645;"/><path d="M2,3.0999998807907105C2,2.4924868907907105,2.49248701,1.9999998807907104,3.1,1.9999998807907104C3.1,1.9999998807907104,18.9,1.9999998807907104,18.9,1.9999998807907104C19.5075,1.9999998807907104,20,2.4924868907907105,20,3.0999998807907105C20,3.0999998807907105,20,8.23332968079071,20,8.23332968079071C20,8.84084978079071,19.5075,9.33333008079071,18.9,9.33333008079071C18.9,9.33333008079071,3.1,9.33333008079071,3.1,9.33333008079071C2.492488,9.33333008079071,2,8.84084978079071,2,8.23332968079071C2,8.23332968079071,2,3.0999998807907105,2,3.0999998807907105C2,3.0999998807907105,2,3.0999998807907105,2,3.0999998807907105Z" fill="#000000" fill-opacity="1"/></svg>