<svg xmlns="http://www.w3.org/2000/svg" xmlns:xlink="http://www.w3.org/1999/xlink" fill="none" version="1.1" width="17" height="10.666666984558105" viewBox="0 0 17 10.666666984558105"><path d="M16,0C16,0,15,0,15,0C14.4477,0,14,0.44771501,14,1C14,1,14,9.6666698,14,9.6666698C14,10.219,14.4477,10.6667,15,10.6667C15,10.6667,16,10.6667,16,10.6667C16.552299,10.6667,17,10.219,17,9.6666698C17,9.6666698,17,1,17,1C17,0.44771501,16.552299,0,16,0C16,0,16,0,16,0ZM10.3333,2.3333299C10.3333,2.3333299,11.3333,2.3333299,11.3333,2.3333299C11.8856,2.3333299,12.3333,2.78105,12.3333,3.3333299C12.3333,3.3333299,12.3333,9.6666698,12.3333,9.6666698C12.3333,10.219,11.8856,10.6667,11.3333,10.6667C11.3333,10.6667,10.3333,10.6667,10.3333,10.6667C9.7810497,10.6667,9.3333302,10.219,9.3333302,9.6666698C9.3333302,9.6666698,9.3333302,3.3333299,9.3333302,3.3333299C9.3333302,2.78105,9.7810497,2.3333299,10.3333,2.3333299C10.3333,2.3333299,10.3333,2.3333299,10.3333,2.3333299ZM6.6666698,4.6666698C6.6666698,4.6666698,5.6666698,4.6666698,5.6666698,4.6666698C5.1143799,4.6666698,4.6666698,5.1143799,4.6666698,5.6666698C4.6666698,5.6666698,4.6666698,9.6666698,4.6666698,9.6666698C4.6666698,10.219,5.1143799,10.6667,5.6666698,10.6667C5.6666698,10.6667,6.6666698,10.6667,6.6666698,10.6667C7.2189498,10.6667,7.6666698,10.219,7.6666698,9.6666698C7.6666698,9.6666698,7.6666698,5.6666698,7.6666698,5.6666698C7.6666698,5.1143799,7.2189498,4.6666698,6.6666698,4.6666698C6.6666698,4.6666698,6.6666698,4.6666698,6.6666698,4.6666698ZM2,6.6666698C2,6.6666698,1,6.6666698,1,6.6666698C0.44771501,6.6666698,0,7.1143799,0,7.6666698C0,7.6666698,0,9.6666698,0,9.6666698C0,10.219,0.44771501,10.6667,1,10.6667C1,10.6667,2,10.6667,2,10.6667C2.5522799,10.6667,3,10.219,3,9.6666698C3,9.6666698,3,7.6666698,3,7.6666698C3,7.1143799,2.5522799,6.6666698,2,6.6666698C2,6.6666698,2,6.6666698,2,6.6666698Z" fill-rule="evenodd" fill="#000000" fill-opacity="1"/></svg>