<svg xmlns="http://www.w3.org/2000/svg" xmlns:xlink="http://www.w3.org/1999/xlink" fill="none" version="1.1" width="15.27237606048584" height="10.965572357177734" viewBox="0 0 15.27237606048584 10.965572357177734"><path d="M7.63661,2.2773299C9.8525,2.27742,11.9837,3.12886,13.5896,4.6556602C13.7105,4.77354,13.9038,4.7720499,14.0229,4.6523299C14.0229,4.6523299,15.1789,3.4856601,15.1789,3.4856601C15.2392,3.4249401,15.2729,3.34269,15.2724,3.2571101C15.2719,3.17153,15.2373,3.0896699,15.1763,3.02966C10.9612,-1.00989,4.3113699,-1.00989,0.096272498,3.02966C0.035213899,3.0896299,0.00056999997,3.1714599,0.0000069707799,3.25704C-0.00055605802,3.3426199,0.033008199,3.42489,0.0932725,3.4856601C0.0932725,3.4856601,1.2496099,4.6523299,1.2496099,4.6523299C1.3686301,4.7722301,1.56208,4.7737198,1.68294,4.6556602C3.2890899,3.1287601,5.4204998,2.2773199,7.63661,2.2773299C7.63661,2.2773299,7.63661,2.2773299,7.63661,2.2773299ZM7.63661,6.0729899C8.8541002,6.0729198,10.0281,6.5254502,10.9306,7.34266C11.0527,7.4586401,11.2449,7.45613,11.3639,7.3369899C11.3639,7.3369899,12.5186,6.17033,12.5186,6.17033C12.5794,6.1091299,12.6132,6.0261202,12.6123,5.9398499C12.6114,5.85359,12.576,5.7712698,12.5139,5.7113299C9.7657404,3.1549399,5.5098,3.1549399,2.76161,5.7113299C2.6995299,5.7712698,2.6641099,5.8536301,2.6633,5.9399199C2.6624801,6.0262098,2.6963401,6.10922,2.7572701,6.17033C2.7572701,6.17033,3.9116099,7.3369899,3.9116099,7.3369899C4.0305901,7.45613,4.2228799,7.4586401,4.3449402,7.34266C5.24681,6.52599,6.41992,6.0735002,7.63661,6.0729899C7.63661,6.0729899,7.63661,6.0729899,7.63661,6.0729899ZM9.9496002,8.6268101C9.9513702,8.7133198,9.9173603,8.7967196,9.8556099,8.8573303C9.8556099,8.8573303,7.8582702,10.873,7.8582702,10.873C7.7997198,10.9322,7.7199001,10.9656,7.63661,10.9656C7.5533199,10.9656,7.4734902,10.9322,7.4149399,10.873C7.4149399,10.873,5.4172702,8.8573303,5.4172702,8.8573303C5.3555598,8.7966805,5.32161,8.7132502,5.3234401,8.6267405C5.3252702,8.5402298,5.36272,8.4583101,5.42694,8.4003296C6.7025099,7.3214402,8.5706997,7.3214402,9.8462696,8.4003296C9.91045,8.4583597,9.9478302,8.5403099,9.9496002,8.6268101C9.9496002,8.6268101,9.9496002,8.6268101,9.9496002,8.6268101Z" fill-rule="evenodd" fill="#000000" fill-opacity="1"/></svg>